<?xml version="1.0" encoding="utf-8"?>
<!-- Generator: Adobe Illustrator 22.1.0, SVG Export Plug-In . SVG Version: 6.00 Build 0)  -->
<svg version="1.1" id="圖層_1" xmlns="http://www.w3.org/2000/svg" xmlns:xlink="http://www.w3.org/1999/xlink" x="0px" y="0px"
	 viewBox="0 0 24 24" style="enable-background:new 0 0 24 24;" xml:space="preserve">
<style type="text/css">
	.st0{fill:#FFA8B8;}
	.st1{fill:#FFFFFF;}
</style>
<path class="st0" d="M12.2,24h-0.3C5.3,24,0,18.7,0,12.2v-0.3C0,5.3,5.3,0,11.8,0h0.3C18.7,0,24,5.3,24,11.8v0.3
	C24,18.7,18.7,24,12.2,24z"/>
<g>
	<path class="st1" d="M9.8,6.3l0.6,1.1C8.2,9.1,7,10.4,7,11.2c0,0.5,0.4,0.8,1.2,1.1c1.4,0.4,2,1.2,2,2.6c0,0.9-0.3,1.6-0.9,2.1
		c-0.7,0.5-1.4,0.8-2.1,0.8c-0.6,0-1.3-0.3-2-0.8c-0.7-0.7-1.1-1.6-1.1-2.9c0-1.4,0.4-2.8,1.2-4C6.2,8.7,7.7,7.4,9.8,6.3z M19.2,6.3
		l0.7,1.1c-2.4,1.7-3.5,3-3.5,3.8c0,0.5,0.4,0.8,1.3,1.1c1.4,0.4,2,1.2,2,2.6c0,0.9-0.3,1.6-0.9,2.1s-1.4,0.8-2.2,0.8
		c-0.6,0-1.3-0.3-2-0.8c-0.7-0.7-1-1.6-1-2.9c0-1.4,0.4-2.8,1.1-4C15.6,8.7,17.1,7.4,19.2,6.3z"/>
</g>
</svg>
