<?xml version="1.0" encoding="utf-8"?>
<!-- Generator: Adobe Illustrator 22.1.0, SVG Export Plug-In . SVG Version: 6.00 Build 0)  -->
<svg version="1.1" id="分離模式" xmlns="http://www.w3.org/2000/svg" xmlns:xlink="http://www.w3.org/1999/xlink" x="0px"
	 y="0px" viewBox="0 0 1417.3 1417.3" style="enable-background:new 0 0 1417.3 1417.3;" xml:space="preserve">
<style type="text/css">
	.st0{fill:#FFFFFF;}
	.st1{fill:none;stroke:#F8C7CB;stroke-width:30;stroke-miterlimit:10;}
	.st2{fill:#FFA8B8;}
</style>
<circle class="st0" cx="708.7" cy="708.7" r="708.7"/>
<circle class="st1" cx="708.7" cy="708.7" r="654.3"/>
<g>
	<path class="st2" d="M595.7,485.9c-11.4,0-20.6,9.2-20.6,20.6v35.2c0,11.4,9.2,20.6,20.6,20.6c11.4,0,20.6-9.2,20.6-20.6v-35.2
		C616.3,495.1,607,485.9,595.7,485.9z"/>
	<path class="st2" d="M824.3,485.9c-11.4,0-20.6,9.2-20.6,20.6v35.2c0,11.4,9.2,20.6,20.6,20.6c11.4,0,20.6-9.2,20.6-20.6v-35.2
		C844.9,495.1,835.6,485.9,824.3,485.9z"/>
	<path class="st2" d="M758.2,616.4c-0.3,0-30.4-1.1-30.4-14.5V587c9.9-1.5,17.6-9.9,17.6-20.3c0-11.4-9.2-20.6-20.6-20.6h-35.2
		c-11.4,0-20.6,9.2-20.6,20.6c0,10.3,7.7,18.8,17.6,20.3v14.9c0,13.4-30.1,14.5-30.3,14.5c-11.4,0-20.6,9.2-20.6,20.6
		s9.2,20.6,20.6,20.6c18.2,0,37.1-4.9,50.9-15.2c13.8,10.2,32.7,15.2,50.9,15.2c11.3,0,20.5-9.2,20.5-20.5
		C778.7,625.7,769.5,616.5,758.2,616.4z"/>
	<path class="st2" d="M1050.2,405c0-75.5-61.4-136.9-136.9-136.9c-29.2,0-57.2,9.4-80.6,26.5c-38.1-22-81.2-33.6-125.5-33.6
		c-44.3,0-87.3,11.6-125.5,33.6c-23.4-17.1-51.4-26.5-80.6-26.5c-75.5,0-136.9,61.4-136.9,136.9c0,58.4,37.9,110.3,92.1,129.2
		c3.3,38.2,15.2,74.1,33.9,105.6c-61.6,20.9-141,79.1-132.1,197.8c-16.8,13.9-30.7,32.1-40.5,54.3c-17.4,39.1-20.3,85.4-8.2,130.5
		c12.1,45,37.8,83.7,72.4,108.9c26,18.9,54.8,28.7,83.4,28.7c10.9,0,21.8-1.4,32.5-4.3c78.5-21,121.8-115.1,96.5-209.6
		c-12-44.9-37.6-83.4-72-108.6c4.1-18.3,12.9-38.6,28.5-66.6c5.6-9.9,2-22.5-7.9-28c-9.9-5.5-22.5-2-28,7.9
		c-11.6,20.8-22.9,43-29.8,66.5c-25.9-9.7-53-11.5-79-4.5c-2.4,0.6-4.7,1.6-7.1,2.3c2.7-99.5,86.2-131.4,116.8-139.7
		c46.4,54.6,115.5,89.5,191.7,89.5c47.9,0,93-13.8,131.4-37.6c18.1,29,44.9,76.6,53.6,110.4c-34.3,25.2-59.8,63.7-71.8,108.4
		c-10.7,39.7-9.6,80.5,2.8,116.4c-0.2,0.1-0.4,0.2-0.6,0.3c-0.3,0.2-32.4,21.3-115.3,21.3c-17.1,0-33.2-0.9-48.1-2.7
		c-4.4-0.5-8.5-1.1-12.5-1.7c-11.2-1.7-21.8,5.9-23.6,17.1c-1.8,11.2,5.9,21.8,17.1,23.6c4.4,0.7,9.1,1.4,14.1,1.9
		c16.5,2,34.3,2.9,53,2.9c80.5,0,120.6-18,134.1-25.7c18.5,28.1,44.5,47.8,75.5,56.1c10.6,2.8,21.4,4.2,32,4.2
		c68.2,0,134.4-55.8,156.3-137.5c12.1-45,9.1-91.3-8.2-130.5c-9.8-22.1-23.7-40.4-40.5-54.3c8.9-118.7-70.5-177-132.1-197.8
		c18.6-31.6,30.6-67.4,33.9-105.6C1012.3,515.3,1050.2,463.4,1050.2,405z M416.4,852.6c7.1-1.9,14.4-2.8,21.7-2.8
		c20.1,0,40.6,7.1,59.4,20.8c27,19.7,47.2,50.3,56.8,86.2c19.4,72.6-10.8,144-67.3,159.1c-26.6,7.1-55.4,0.8-81.1-17.9
		c-27-19.7-47.2-50.3-56.8-86.2c-9.6-35.9-7.5-72.5,6.1-103.1C368.1,879.6,389.8,859.7,416.4,852.6z M1009.1,405
		c0,35.8-20.4,68.2-51,84.5c-2.2-24-7.8-47.4-16.8-69.9c0,0,0,0,0,0c-15.5-38.9-40.3-72.7-72.1-99.4c13.5-7.1,28.6-10.9,44.2-10.9
		C966.1,309.3,1009.1,352.2,1009.1,405z M405.4,405c0-52.8,42.9-95.7,95.7-95.7c15.5,0,30.6,3.8,44.2,10.9
		c-31.8,26.7-56.6,60.5-72.1,99.4c0,0,0,0,0,0c-9,22.4-14.6,45.9-16.8,69.9C425.8,473.2,405.4,440.8,405.4,405z M496.6,518.1
		C496.6,518,496.6,518,496.6,518.1l-0.1-5.1c0-27,5-53.2,14.9-78c0,0,0,0,0,0c16-40.2,43.7-74.1,80-98
		c34.4-22.7,74.5-34.7,115.8-34.7c41.3,0,81.4,12,115.8,34.7c36.3,23.9,64,57.8,80,98c0,0,0,0,0,0c9.9,24.8,14.9,51.1,14.9,78
		l-0.1,5.1c0,0,0,0,0,0c-2.7,113.4-97.2,205.7-210.6,205.7C593.8,723.7,499.3,631.5,496.6,518.1z M1065.4,1011.7
		c-19.5,72.6-81.3,119.3-137.9,104.1c-26.6-7.1-48.4-27-61.2-56.1c-13.6-30.5-15.7-67.1-6.1-103.1c9.6-35.9,29.8-66.6,56.8-86.2
		c18.8-13.7,39.3-20.8,59.4-20.8c7.3,0,14.6,0.9,21.7,2.8c26.6,7.1,48.4,27,61.2,56.1C1072.9,939.2,1075,975.8,1065.4,1011.7z
		 M1015.8,815.2c-2.4-0.8-4.7-1.7-7.1-2.4c-26.2-7-53.5-5.2-79.5,4.7c-13.2-41.7-42-90.4-57.3-114.7c9.7-8.5,18.8-17.6,27.2-27.4
		C929.6,683.6,1013.3,715.1,1015.8,815.2z"/>
</g>
</svg>
