<?xml version="1.0" encoding="utf-8"?>
<!-- Generator: Adobe Illustrator 22.1.0, SVG Export Plug-In . SVG Version: 6.00 Build 0)  -->
<svg version="1.1" id="分離模式" xmlns="http://www.w3.org/2000/svg" xmlns:xlink="http://www.w3.org/1999/xlink" x="0px"
	 y="0px" viewBox="0 0 1417.3 1417.3" style="enable-background:new 0 0 1417.3 1417.3;" xml:space="preserve">
<style type="text/css">
	.st0{fill:#FFFFFF;}
	.st1{fill:none;stroke:#F8C7CB;stroke-width:30;stroke-miterlimit:10;}
	.st2{fill:#FFA8B8;}
</style>
<circle class="st0" cx="708.7" cy="708.7" r="708.7"/>
<circle class="st1" cx="708.7" cy="708.7" r="654.3"/>
<g>
	<path class="st2" d="M594.7,703.1H382.9c-56.3,0-102,45.8-102,102V1017c0,56.3,45.8,102,102,102h211.8c56.3,0,102-45.8,102-102
		V805.1C696.7,748.9,651,703.1,594.7,703.1z M655.9,1017c0,33.7-27.5,61.2-61.2,61.2H382.9c-33.7,0-61.2-27.5-61.2-61.2V805.1
		c0-33.7,27.5-61.2,61.2-61.2h211.8c33.7,0,61.2,27.5,61.2,61.2V1017z"/>
	<path class="st2" d="M1062.4,703.1H850.6c-56.3,0-102,45.8-102,102V1017c0,56.3,45.8,102,102,102h211.8c56.3,0,102-45.8,102-102
		V805.1C1164.5,748.9,1118.7,703.1,1062.4,703.1z M1123.6,1017c0,33.7-27.5,61.2-61.2,61.2H850.6c-33.8,0-61.2-27.5-61.2-61.2V805.1
		c0-33.7,27.5-61.2,61.2-61.2h211.8c33.7,0,61.2,27.5,61.2,61.2V1017z"/>
	<path class="st2" d="M809.5,257.7H597.6c-56.3,0-102,45.8-102,102v211.8c0,56.3,45.8,102,102,102h211.8c56.3,0,102-45.8,102-102
		V359.8C911.5,303.5,865.7,257.7,809.5,257.7z M870.7,571.6c0,33.7-27.5,61.2-61.2,61.2H597.6c-33.7,0-61.2-27.5-61.2-61.2V359.8
		c0-33.7,27.5-61.2,61.2-61.2h211.8c33.7,0,61.2,27.5,61.2,61.2V571.6z"/>
	<path class="st2" d="M705.3,344.9c-54.5,0-91.7,127.2-109,203c-2.5,11,4.4,21.9,15.3,24.4c1.5,0.3,3.1,0.5,4.6,0.5
		c9.3,0,17.7-6.4,19.9-15.9c4-17.4,8.5-34.5,13.4-51h62.7c11.3,0,20.4-9.1,20.4-20.4s-9.1-20.4-20.4-20.4h-49.4
		c15.5-43.4,31.9-75.4,42.5-79.4c17.1,6.7,48.1,87.4,65.6,170.8c2.3,11,13.1,18.1,24.2,15.8c11-2.3,18.1-13.1,15.8-24.2
		C794.9,472.3,760,344.9,705.3,344.9z"/>
	<path class="st2" d="M553.5,902.3c7.5-10.8,11.9-24,11.9-38.1c0-37.1-30.1-67.2-67.2-67.2h-83c-11.3,0-20.4,9.1-20.4,20.4v187.2
		c0,11.3,9.1,20.4,20.4,20.4h100.4c37.1,0,67.2-30.1,67.2-67.2C582.8,934.7,571.2,914.4,553.5,902.3z M515.6,984.1h-80V837.7h62.6
		c14.6,0,26.4,11.8,26.4,26.4c0,14.5-11.8,26.4-26.4,26.4h-18.1c-11.3,0-20.4,9.1-20.4,20.4c0,11.3,9.1,20.4,20.4,20.4h35.5
		c14.6,0,26.4,11.8,26.4,26.4S530.1,984.1,515.6,984.1z"/>
	<path class="st2" d="M1054.9,938.6c-9.9-5.4-22.3-1.8-27.7,8c-6.3,11.5-15.7,21.2-27.2,27.9c-35.1,20.7-80.6,9-101.3-26.1
		c-10-17-12.9-36.9-7.9-56.1c4.9-19.1,17-35.2,34-45.2c35.1-20.7,80.6-9,101.3,26.1c5.7,9.7,18.2,12.9,27.9,7.2
		c9.7-5.7,12.9-18.2,7.2-28c-32.2-54.5-102.7-72.6-157.2-40.5c-54.5,32.2-72.6,102.7-40.5,157.2c21.4,36.2,59.7,56.4,99,56.4
		c19.8,0,39.9-5.1,58.2-15.9c17.7-10.5,32.3-25.5,42.2-43.4C1068.3,956.5,1064.7,944.1,1054.9,938.6z"/>
</g>
</svg>
