<?xml version="1.0" encoding="utf-8"?>
<!-- Generator: Adobe Illustrator 22.1.0, SVG Export Plug-In . SVG Version: 6.00 Build 0)  -->
<svg version="1.1" id="分離模式" xmlns="http://www.w3.org/2000/svg" xmlns:xlink="http://www.w3.org/1999/xlink" x="0px"
	 y="0px" viewBox="0 0 1417.3 1417.3" style="enable-background:new 0 0 1417.3 1417.3;" xml:space="preserve">
<style type="text/css">
	.st0{fill:#FFA8B8;}
	.st1{fill:#FFFFFF;}
</style>
<circle class="st0" cx="708.7" cy="708.3" r="708.3"/>
<g>
	<path class="st1" d="M531,510c18.8,0.3,59.5,0,88,0c-31,51.4-62.3,116.3-88,176h128.1c8.2-43.6,30.8-116.7,47.9-148.9
		c17.1,32.2,37.3,94.4,47.9,148.9H883c-22.4-54-55.5-123.3-88-176c28.5,0,69.2,0.3,88,0c92.5-1.5,131.4-79.5,132-132
		c0.7-67.5-53-132.3-132-132c-66,0.3-123.8,38.4-176,101.8C654.8,284.3,596.9,246.2,531,246c-79-0.3-132.7,64.5-132,132
		C399.5,430.5,438.5,508.4,531,510z M866.7,334.1c49.8,0,66.3,84.4-5.3,87.9c-10.4,0.5-97.8,0-97.8,0
		C809.3,358.6,829.9,334.1,866.7,334.1z M546.7,334.1c36.7,0,58,24.6,103.6,87.9c0,0-87.9,0.5-98.3,0
		C480.4,418.5,497,334.1,546.7,334.1z"/>
	<path class="st1" d="M1147,422h-71.5c-7.7,32.4-23.4,63-45.3,88h94.8c12.1,0,22,9.9,22,22v242H267V532c0-12.1,9.9-22,22-22h94.8
		c-19-21.8-33.3-47.8-41.8-75.6l-3.4-12.5H267c-48.6,0-88,39.4-88,88v528c0,48.6,39.4,88,88,88H1147c48.6,0,88-39.4,88-88V510
		C1235,461.4,1195.6,422,1147,422z M1147,1016c0,12.1-9.9,22-22,22H289c-12.1,0-22-9.9-22-22V906H1147V1016z"/>
</g>
</svg>
