<?xml version="1.0" encoding="utf-8"?>
<!-- Generator: Adobe Illustrator 22.1.0, SVG Export Plug-In . SVG Version: 6.00 Build 0)  -->
<svg version="1.1" id="分離模式" xmlns="http://www.w3.org/2000/svg" xmlns:xlink="http://www.w3.org/1999/xlink" x="0px"
	 y="0px" viewBox="0 0 1417.3 1417.3" style="enable-background:new 0 0 1417.3 1417.3;" xml:space="preserve">
<style type="text/css">
	.st0{fill:#FFFFFF;}
	.st1{fill:none;stroke:#F8C7CB;stroke-width:30;stroke-miterlimit:10;}
	.st2{fill:#FFA8B8;}
</style>
<circle class="st0" cx="708.7" cy="708.7" r="708.7"/>
<circle class="st1" cx="708.7" cy="708.7" r="654.3"/>
<g>
	<path class="st2" d="M708.7,736.6c5,0,10.1-1.8,14.1-5.4l74.8-66.9c0.3-0.3,28.1-25.2,56.2-53.1c52-51.8,95.1-100.5,95.1-172.8
		c0-82.1-61.7-148.8-137.6-148.8c-44.8,0-80.2,38.9-101.6,70.4c-21.1-32.4-56.9-72.9-103.6-72.9c-75.9,0-137.6,66.8-137.6,148.8
		c0,73.4,39.8,123.3,152,226.9l73.8,68.2C698.4,734.7,703.5,736.6,708.7,736.6z M510.9,435.8c0-58.7,42.7-106.5,95.3-106.5
		c30.6,0,64.1,40.8,83.8,81.3c0.8,1.6,2.3,3.8,3.5,5.1c4.6,5.3,11.6,8,18.6,7.2c7-0.9,13.1-5.1,16.3-11.4
		c18.6-36.7,51.5-79.6,83-79.6c52.5,0,95.3,47.8,95.3,106.5c0,56.2-34.3,94.6-82.7,142.8c-27.3,27.2-54.3,51.3-54.5,51.6l-60.5,54.1
		l-59.7-55.2C531.8,523.1,510.9,486,510.9,435.8z"/>
	<path class="st2" d="M603.4,1178.9c11.7,0,21.2-9.5,21.2-21.2V991.5c0-63.3-49.5-109.8-93.2-150.8c-27.1-25.4-55.1-51.7-55.1-70.2
		v-90.1c0-55.4-31.5-84.5-64.7-98.2c-0.7-20.2-2.1-70.2,0.4-120.2c3.9-79.4-29.9-120-65.1-125c-27.8-4-65.8,14.2-81.1,78.5
		c-20.6,86.2-19.5,166.9-18.4,244.9c0.2,16.2,0.4,32.2,0.4,48c0,186.4,67.4,267.1,112.1,320.6c19.8,23.8,34.2,40.9,34.2,57.4v71.5
		c0,11.7,9.5,21.2,21.2,21.2s21.2-9.5,21.2-21.2v-71.5c0-31.9-20.4-56.3-44-84.6c-43.1-51.7-102.2-122.4-102.2-293.5
		c0-15.9-0.2-32.1-0.4-48.6c-1-75.4-2.1-153.4,17.3-234.5c7.8-32.6,23-48.1,34-46.4c13.5,1.9,31.4,28.3,28.8,81
		c-2.2,44.1-1.5,87.1-0.8,112.1c-3.1-0.2-6.2-0.4-9-0.4c-11.7,0-21.2,9.5-21.2,21.2v129.5c0,87.8,17,139.3,17.7,141.4
		c3.7,11,15.7,16.9,26.8,13.3c11.1-3.7,17.1-15.7,13.4-26.8c-0.2-0.5-15.5-47.7-15.5-128V616.4c22,5,52.8,20,52.8,64v90.1
		c0,36.8,33.3,68,68.5,101c37.4,35.1,79.9,75,79.9,120v166.3C582.3,1169.5,591.8,1178.9,603.4,1178.9z"/>
	<path class="st2" d="M1127.3,708.3c0,171-59.1,241.8-102.2,293.5c-23.6,28.3-44,52.7-44,84.6v71.5c0,11.7,9.5,21.2,21.2,21.2
		c11.7,0,21.2-9.5,21.2-21.2v-71.5c0-16.5,14.3-33.7,34.2-57.4c44.6-53.4,112.1-134.2,112.1-320.6c0-15.7,0.2-31.7,0.4-48
		c1-78,2.1-158.7-18.4-244.9c-15.3-64.3-53.3-82.5-81.1-78.5c-35.2,5-69,45.6-65.1,125c2.5,50,1.1,100,0.4,120.2
		c-33.2,13.8-64.7,42.9-64.7,98.2v90.1c0,18.5-28,44.7-55.1,70.2c-43.7,41-93.2,87.5-93.2,150.8v166.3c0,11.7,9.5,21.2,21.2,21.2
		c11.7,0,21.2-9.5,21.2-21.2V991.5c0-45,42.4-84.8,79.9-120c35.2-33,68.5-64.3,68.5-101v-90.1c0-43.6,30.8-58.6,52.8-63.8v105.6
		c0,80.2-15.3,127.5-15.5,127.9c-3.7,11.1,2.2,23.1,13.3,26.8c11.1,3.8,23.1-2.2,26.8-13.3c0.7-2.2,17.7-53.6,17.7-141.4V592.7
		c0-11.7-9.5-21.2-21.2-21.2c-2.8,0-5.8,0.1-9,0.4c0.7-25,1.4-68-0.8-112.1c-2.6-52.7,15.3-79.1,28.8-81c10.9-1.7,26.2,13.9,34,46.4
		c19.4,81.1,18.3,159.1,17.3,234.5C1127.5,676.2,1127.3,692.4,1127.3,708.3z"/>
</g>
</svg>
