<?xml version="1.0" encoding="utf-8"?>
<!-- Generator: Adobe Illustrator 22.1.0, SVG Export Plug-In . SVG Version: 6.00 Build 0)  -->
<svg version="1.1" id="分離模式" xmlns="http://www.w3.org/2000/svg" xmlns:xlink="http://www.w3.org/1999/xlink" x="0px"
	 y="0px" viewBox="0 0 1417.3 1417.3" style="enable-background:new 0 0 1417.3 1417.3;" xml:space="preserve">
<style type="text/css">
	.st0{fill:#FFFFFF;}
	.st1{fill:none;stroke:#F8C7CB;stroke-width:30;stroke-miterlimit:10;}
	.st2{fill:#FFA8B8;}
</style>
<circle class="st0" cx="708.7" cy="708.7" r="708.7"/>
<circle class="st1" cx="708.7" cy="708.7" r="654.3"/>
<g>
	<path class="st2" d="M372.1,549.7c-11.4,0-20.7,9.3-20.7,20.7v381.5c0,104.5,70,180.3,166.3,180.3c11.4,0,20.7-9.3,20.7-20.7
		c0-11.4-9.3-20.7-20.7-20.7c-72.4,0-125-58.5-125-139v-4.4c4.7,1.3,9.5,2.2,14.6,2.2H425c68.1,0,147.7,33.2,147.7,126.6
		c0,30.9,25.1,56,56,56h153.6c30.9,0,56-25.1,56-56c0-85.2,48.3-126.6,147.7-126.6h17.7c5.1,0,9.9-0.9,14.6-2.2v4.4
		c0,80.5-52.6,139-125,139c-11.4,0-20.7,9.3-20.7,20.7c0,11.4,9.3,20.7,20.7,20.7c90.4,0,157.5-66.7,165.5-161.1
		c0.5-6.3,0.8-12.7,0.8-19.2v-58.2V570.4c0-11.4-9.3-20.7-20.7-20.7c-11.4,0-20.7,9.3-20.7,20.7v323.3c0,8.1-6.6,14.6-14.6,14.6
		h-17.7c-121.9,0-189,59.7-189,168c0,8.1-6.6,14.6-14.6,14.6H628.6c-8.1,0-14.6-6.6-14.6-14.6c0-116-94.9-168-189-168h-17.7
		c-8.1,0-14.6-6.6-14.6-14.6V570.4C392.7,559,383.5,549.7,372.1,549.7z"/>
	<path class="st2" d="M1098.1,377.9c-0.1-0.1-1-0.9-1.1-1c-43.8-41.9-75.5-72.2-133-72.2H655c-11.4,0-20.7,9.3-20.7,20.7
		c0,11.4,9.3,20.7,20.7,20.7h181c-10,63.2-64.6,111.7-130.6,111.7c-73,0-132.4-59.4-132.4-132.4c0-11.4-9.3-20.7-20.7-20.7
		c-0.7,0-1.3,0.1-1.9,0.2c-0.6-0.1-1.3-0.2-1.9-0.2H446.8c-57.5,0-89.2,30.3-133,72.2c-0.1,0.1-1,0.9-1.1,1L161.9,527.6
		c-4.1,4.1-6.3,9.8-6.1,15.6c0.3,5.8,3,11.3,7.5,15L281.6,656c3.9,3.2,8.5,4.7,13.2,4.7c5.9,0,11.8-2.6,15.9-7.5
		c7.3-8.8,6-21.8-2.7-29.1l-100.7-83.3l135.1-134.1c42.3-40.4,63.5-60.7,104.4-60.7h82.4c10.3,88.2,85.3,156.9,176.2,156.9
		c56.8,0,110.6-27.5,143.9-73.5c2.8-3.9,4-8.5,3.8-13c12.9-20.9,21.6-44.7,24.7-70.3h86.3c40.9,0,62.1,20.3,104.9,61.2l134.6,133.7
		l-100.7,83.3c-8.8,7.3-10,20.3-2.7,29.1c4.1,4.9,10,7.5,15.9,7.5c4.6,0,9.3-1.6,13.2-4.7l118.2-97.8c4.5-3.7,7.2-9.2,7.5-15
		c0.3-5.8-1.9-11.5-6.1-15.6L1098.1,377.9z"/>
	<path class="st2" d="M677.2,873.4c3.8,3.2,8.6,4.9,13.3,4.9c4.6,0,9.3-1.5,13.1-4.7l51.8-42.3c0.2-0.1,19.4-15.8,39.4-33.9
		c37.4-34,68.4-66.1,68.4-115.2c0-55.9-45.5-101.5-101.5-101.5c-30.2,0-54.5,21.5-70.4,41.2c-15.8-20.3-40.5-42.8-72-42.8
		c-55.9,0-101.5,45.5-101.5,101.5c0,49.7,28.3,82.4,108.1,149.6L677.2,873.4z M559.2,680.6c0-33.2,27-60.1,60.1-60.1
		c18.9,0,40.8,24.9,53.1,48c1,1.8,2.5,3.8,4,5.3c4.6,4.6,11,6.8,17.5,5.9c6.4-0.9,12-4.8,15.2-10.4c13-23.4,34.4-47.1,52.6-47.1
		c33.2,0,60.1,27,60.1,60.1c0,32.2-22.8,55.4-54.9,84.6c-18.8,17.1-37.3,32.2-37.6,32.4l-38.6,31.5l-38.1-32.1
		C573.3,731.8,559.2,709.6,559.2,680.6z"/>
</g>
</svg>
