<?xml version="1.0" encoding="utf-8"?>
<!-- Generator: Adobe Illustrator 22.1.0, SVG Export Plug-In . SVG Version: 6.00 Build 0)  -->
<svg version="1.1" id="分離模式" xmlns="http://www.w3.org/2000/svg" xmlns:xlink="http://www.w3.org/1999/xlink" x="0px"
	 y="0px" viewBox="0 0 1417.3 1417.3" style="enable-background:new 0 0 1417.3 1417.3;" xml:space="preserve">
<style type="text/css">
	.st0{fill:#F5B57D;}
	.st1{fill:#FFFFFF;}
</style>
<circle class="st0" cx="708.7" cy="708.3" r="708.3"/>
<g>
	<path class="st1" d="M908.6,444.7c-14.1,0-25.6,11.5-25.6,25.6v45.3c0,14.1,11.5,25.6,25.6,25.6c14.1,0,25.6-11.5,25.6-25.6v-45.3
		C934.2,456.1,922.7,444.7,908.6,444.7z"/>
	<path class="st1" d="M1219.1,488.5c-7.4-4-16.4-4.1-23.8-0.2c-43.2,22.3-84.3-0.1-101.3-11.9c0.2-4.8,0.4-9.5,0.4-14.3
		c0-159.9-130.1-289.9-289.9-289.9c-159.8,0-289.9,130.1-289.9,289.9c0,72.8,27.2,141.9,75.6,195c-40.1,21.1-67.2,46.1-89.8,67.1
		c-29.9,27.8-46.7,42.3-74.1,42.3c-10.9,0-49-11.6-107-36.9c-24.9-10.9-61.6-23-92.6-2.7c-30.5,19.9-44.7,63.9-44.7,138.4
		c0,281.5,218.6,381.3,405.7,381.3h216.9c174.8,0,317-142.2,317-317c0-110.5-42.2-202.3-117-257.7c12-11.5,22.9-23.9,32.7-37.1
		c21.8,4.3,41.9,6.5,60.4,6.5c41.5,0,74.4-10.9,98.1-32.6c43-39.3,37-97.9,36.8-100.4C1231.5,499.9,1226.5,492.5,1219.1,488.5z
		 M1070.4,929.6c0,146.6-119.3,265.8-265.8,265.8H587.7c-171.4,0-354.6-86.7-354.6-330.1c0-73.5,15-91.3,21.5-95.5
		c7.6-5,22.5-2.7,44.1,6.8c43,18.8,100.1,41.2,127.5,41.2c48.8,0,78-27.2,109-56c24.5-22.8,52.1-48.3,96-67.6
		c49.9,37.3,110.8,57.9,173.3,57.9c14.1,0,25.6-11.5,25.6-25.6c0-14.1-11.5-25.6-25.6-25.6c-55.9,0-110.3-19.8-153.2-55.7
		c0,0,0,0,0,0c-54.4-45.5-85.5-112.3-85.5-183c0-131.6,107.1-238.7,238.7-238.7c131.6,0,238.7,107.1,238.7,238.7
		c0,76.4-35.3,146.4-96.8,191.9c-0.1,0.1-0.1,0.1-0.2,0.2c-0.9,0.7-1.7,1.5-2.5,2.3c-0.4,0.4-0.9,0.8-1.2,1.2c-0.5,0.6-1,1.3-1.5,2
		c-0.5,0.7-1.1,1.4-1.5,2.2c-0.1,0.1-0.2,0.2-0.2,0.3c-0.3,0.6-0.5,1.2-0.7,1.8c-0.4,0.8-0.8,1.7-1.1,2.5c-0.3,0.8-0.4,1.6-0.6,2.5
		c-0.2,0.8-0.4,1.6-0.5,2.4c-0.1,0.8-0.1,1.7-0.1,2.5c0,0.8-0.1,1.6,0,2.5c0.1,0.8,0.2,1.5,0.3,2.3c0.1,0.9,0.3,1.8,0.5,2.6
		c0.2,0.7,0.5,1.4,0.8,2.2c0.3,0.8,0.6,1.6,1,2.4c0.4,0.8,0.9,1.6,1.4,2.4c0.3,0.5,0.6,1.1,1,1.6c0.1,0.1,0.2,0.2,0.2,0.2
		c1.1,1.5,2.4,2.9,3.9,4.1c0.4,0.3,0.8,0.5,1.2,0.8c0.9,0.7,1.9,1.4,2.9,2C1027.4,740,1070.4,822.6,1070.4,929.6z M1161.1,570.9
		c-18.8,17.2-51.6,22.9-95.6,16.8c8.7-18.1,15.6-37.1,20.5-56.7c22.6,11.6,54.5,22.1,90.6,16.7
		C1173.5,555.8,1168.7,564,1161.1,570.9z"/>
	<path class="st1" d="M637.4,1071.8h-2.4c-14.1,0-25.6,11.5-25.6,25.6c0,6.1,2.1,11.7,5.7,16.1l-98.2-41.7
		c-124.4,0-154.4-130.5-155.7-136.4c-2.9-13.8-16.5-22.6-30.3-19.7c-13.8,2.9-22.7,16.5-19.7,30.3c12.9,61.2,72.6,176.9,205.8,176.9
		h120.5c14.1,0,25.6-11.5,25.6-25.6S651.5,1071.8,637.4,1071.8z"/>
	<path class="st1" d="M549.4,1011c14.1,0,25.6-11.5,25.6-25.6c0-14.1-11.5-25.6-25.6-25.6c-59.2,0-74.1-49.7-75.7-55.6
		c-3.4-13.7-17.4-21.9-30.9-18.6c-13.7,3.4-22.1,17.2-18.7,31C432.1,949.2,468.6,1011,549.4,1011z"/>
</g>
</svg>
